<svg id="Layer_1" data-name="Layer 1" xmlns="http://www.w3.org/2000/svg" xmlns:xlink="http://www.w3.org/1999/xlink" viewBox="0 0 2500 2500"><defs><style>.cls-1{fill:#fff;}.cls-2{fill:url(#linear-gradient);}</style><linearGradient id="linear-gradient" x1="2000.62" y1="819.68" x2="2352.73" y2="467.57" gradientTransform="matrix(5.02, 0, 0, -5.02, -6217.21, 4680.2)" gradientUnits="userSpaceOnUse"><stop offset="0" stop-color="#2489be"/><stop offset="1" stop-color="#0575b3"/></linearGradient></defs><path class="cls-1" d="M4711,2573.6h0c-621.3,0-1124.9-503.6-1124.9-1124.9h0c0-621.3,503.6-1124.9,1124.9-1124.9h0c621.3,0,1124.9,503.6,1124.9,1124.9h0C5835.9,2070,5332.3,2573.6,4711,2573.6Z" transform="translate(-3461 -198.8)"/><path class="cls-2" d="M4711,198.8c-690.4,0-1250,559.6-1250,1250s559.6,1250,1250,1250,1250-559.6,1250-1250S5401.4,198.8,4711,198.8ZM4376.9,2053.1h-274v-887h274ZM4239,1050.2c-89.6,0-162.3-73.3-162.3-163.6S4149.4,723,4239,723s162.3,73.3,162.3,163.6S4328.6,1050.2,4239,1050.2ZM5406.9,2053.1h-274V1587.7c0-127.7-48.5-198.9-149.6-198.9-110,0-167.4,74.2-167.4,198.9v465.4h-263v-887h263v119.4s79.2-146.5,267.3-146.5,322.7,114.8,322.7,352.3l1,561.8Z" transform="translate(-3461 -198.8)"/></svg>