<svg xmlns="http://www.w3.org/2000/svg" width="100%" height="100%" viewBox="0 0 891 478">
  <g id="Motion_Graphics" data-name="Motion Graphics" transform="translate(-27 -2847)">
    <rect id="Rectangle_9" data-name="Rectangle 9" width="891" height="450" rx="25" transform="translate(27 2875)" fill="#1f1c2d"/>
    <text id="Motion_Graphics_Animations" data-name="Motion Graphics &amp; Animations" transform="translate(100 3003)" fill="#fff" font-size="35" font-family="SegoeUI-Semibold, Segoe UI" font-weight="600"><tspan x="0" y="0">Motion Graphics &amp; Animations</tspan></text>
    <g id="Group_11" data-name="Group 11">
      <rect id="Rectangle_10" data-name="Rectangle 10" width="85" height="85" rx="11" transform="translate(107 2847)" fill="#6366f1"/>
      <g id="graphic-card" transform="translate(127 2841)">
        <path id="Path_2" data-name="Path 2" d="M4.219,0H8.9V7.947H48.2a2.925,2.925,0,0,1,2.177.977,3.5,3.5,0,0,1,1.153,2.353V32.006a3.336,3.336,0,0,1-3.33,3.33H47.015v2.575a1.153,1.153,0,0,1-.335.805l0,0a1.153,1.153,0,0,1-.805.335H26.118a1.156,1.156,0,0,1-.809-.335.839.839,0,0,1-.059-.067,1.142,1.142,0,0,1-.277-.742V35.336H22.184v2.575a1.156,1.156,0,0,1-.335.809.84.84,0,0,1-.067.059,1.142,1.142,0,0,1-.742.277H11.73a1.156,1.156,0,0,1-.809-.335.839.839,0,0,1-.059-.067,1.142,1.142,0,0,1-.277-.742V35.336H8.9V40.85H4.219v-9.2H2.684a.252.252,0,0,1-.252-.252V24.311a.252.252,0,0,1,.252-.252H4.215V17.626H2.684a.252.252,0,0,1-.252-.252V10.287a.252.252,0,0,1,.252-.252H4.215v-6.3H1.866A1.873,1.873,0,0,1,0,1.866H0A1.87,1.87,0,0,1,1.866,0ZM15.638,28.953h1.313V27.359H15.638v1.594ZM38.561,12.665a8.977,8.977,0,1,1-6.345,2.629,8.947,8.947,0,0,1,6.345-2.629Zm5.594,3.384a7.917,7.917,0,1,0,2.315,5.594,7.889,7.889,0,0,0-2.315-5.594Zm-2.99,6.5a2.56,2.56,0,0,1-.549.83,3.474,3.474,0,0,1-.969.684c0,.1-.008.2-.017.3q-.019.252-.063.516a6.277,6.277,0,0,1-.591,1.74,7.587,7.587,0,0,0-.419,1.04,1.15,1.15,0,0,0-.046.361.666.666,0,0,0,.21.449,1.28,1.28,0,0,0,.537.294,2.221,2.221,0,0,0,.746.08,3.466,3.466,0,0,0,.671-.117,5.674,5.674,0,0,0,.667-.231,4.062,4.062,0,0,0,.558-.277,5.367,5.367,0,0,0,.524-.344,3.946,3.946,0,0,0,1.2-1.321,2.2,2.2,0,0,0,.256-1.258,2.484,2.484,0,0,0-.5-1.225,4.779,4.779,0,0,0-1.669-1.346,1.428,1.428,0,0,0-.382-.134.463.463,0,0,0-.164-.038Zm-1.694-3.229a2.521,2.521,0,0,1,.851.516,3.5,3.5,0,0,1,.726.939c.1,0,.2,0,.3,0,.18.008.352.021.52.038a6.205,6.205,0,0,1,1.766.516,7.171,7.171,0,0,0,1.061.369.015.015,0,0,1,.013,0,1.019,1.019,0,0,0,.348.025.677.677,0,0,0,.44-.231,1.315,1.315,0,0,0,.268-.554,2.229,2.229,0,0,0,.046-.746,3.456,3.456,0,0,0-.147-.667,6.511,6.511,0,0,0-.26-.658,4.894,4.894,0,0,0-.3-.545,5.755,5.755,0,0,0-.369-.507,3.916,3.916,0,0,0-1.376-1.141,2.246,2.246,0,0,0-1.271-.2,2.53,2.53,0,0,0-1.2.549,4.763,4.763,0,0,0-1.271,1.728,1.441,1.441,0,0,0-.117.39,1.212,1.212,0,0,0-.025.172Zm-3.229,1.459a2.568,2.568,0,0,1,.512-.856,3.513,3.513,0,0,1,.939-.725c0-.1,0-.2,0-.3,0-.176.017-.352.038-.52a6.167,6.167,0,0,1,.512-1.766,7.368,7.368,0,0,0,.369-1.061,1,1,0,0,0,.029-.361.687.687,0,0,0-.231-.44,1.315,1.315,0,0,0-.554-.268,2.124,2.124,0,0,0-.746-.042,3.39,3.39,0,0,0-.667.147,5.2,5.2,0,0,0-.654.264,4.643,4.643,0,0,0-.545.306,5.5,5.5,0,0,0-.5.365,3.9,3.9,0,0,0-1.136,1.38,2.2,2.2,0,0,0-.2,1.266,2.5,2.5,0,0,0,.554,1.2A4.776,4.776,0,0,0,35.7,20.641a1.441,1.441,0,0,0,.39.117.6.6,0,0,0,.155.025Zm3.829-.5a1.964,1.964,0,1,0,.575,1.388,1.945,1.945,0,0,0-.575-1.388Zm-2.4,3.665a2.621,2.621,0,0,1-.86-.5,3.553,3.553,0,0,1-.742-.927h-.3c-.172,0-.348-.013-.516-.029a6.24,6.24,0,0,1-1.774-.486,7.742,7.742,0,0,0-1.065-.356,1.1,1.1,0,0,0-.361-.025.68.68,0,0,0-.436.235,1.33,1.33,0,0,0-.26.554,2.227,2.227,0,0,0-.034.746,3.386,3.386,0,0,0,.159.663,4.8,4.8,0,0,0,.273.65,5.8,5.8,0,0,0,.31.541c.117.176.243.344.373.5a3.953,3.953,0,0,0,1.4,1.116,2.241,2.241,0,0,0,1.271.185,2.489,2.489,0,0,0,1.191-.57A4.765,4.765,0,0,0,37.542,24.5a1.324,1.324,0,0,0,.109-.39.973.973,0,0,0,.021-.159Zm-22.751-7.3h8.895a.553.553,0,0,1,.554.554v8.924a.556.556,0,0,1-.554.554H14.921a.556.556,0,0,1-.554-.554V17.207a.553.553,0,0,1,.554-.554Zm2.344,2.592h4.206a.336.336,0,0,1,.335.335v4.181a.336.336,0,0,1-.335.335H17.265a.336.336,0,0,1-.335-.335V19.58a.336.336,0,0,1,.335-.335Zm9.582,2.894v1.09H25.254v-1.09Zm0-2.084v1.09H25.254v-1.09Zm0,4.173v1.313H25.254V24.227Zm0-6.479V19.06H25.254V17.748ZM12.224,22.138v1.09h1.594v-1.09Zm0-2.084v1.09h1.594v-1.09Zm0,4.173v1.313h1.594V24.227Zm0-6.479V19.06h1.594V17.748Zm7.809-3.418h1.09v1.594h-1.09V14.33Zm-2.084,0h1.09v1.594h-1.09V14.33Zm4.168,0H23.43v1.594H22.117V14.33Zm-6.479,0h1.313v1.594H15.638V14.33Zm4.395,14.623h1.09V27.359h-1.09v1.594Zm-2.084,0h1.09V27.359h-1.09v1.594Zm4.168,0H23.43V27.359H22.117v1.594ZM8.9,10.191V33.205H47.33a2.11,2.11,0,0,0,1.506-.629,2.142,2.142,0,0,0,.629-1.506V12.325a2.148,2.148,0,0,0-2.13-2.135H8.9ZM45.56,35.336h-2.7a.724.724,0,0,1,.067.3V37.6H45.56V35.336Zm-4.022,0h-3.07a.724.724,0,0,1,.067.3V37.6h2.94V35.638a.735.735,0,0,1,.063-.3Zm-4.395,0H34.069a.724.724,0,0,1,.067.3V37.6h2.94V35.638a.738.738,0,0,1,.067-.3Zm-4.395,0h-3.07a.724.724,0,0,1,.067.3V37.6h2.94V35.638a.673.673,0,0,1,.063-.3Zm-4.395,0H26.428V37.6h1.858V35.638a.738.738,0,0,1,.067-.3Zm-7.624,0H18.892a.724.724,0,0,1,.067.3V37.6h1.77V35.336Zm-3.158,0H14.938a.724.724,0,0,1,.067.3V37.6h2.5V35.638a.673.673,0,0,1,.063-.3Zm-3.959,0H12.036V37.6h1.51V35.638a.738.738,0,0,1,.067-.3Z" transform="translate(-3 28)" fill="#fff" fill-rule="evenodd"/>
      </g>
    </g>
    <g id="swipe-right-svgrepo-com" transform="translate(690.7 3043.824)">
      <g id="Group_10" data-name="Group 10" transform="translate(-86 -70.331)">
        <g id="Group_9" data-name="Group 9" transform="translate(0 0)">
          <path id="Path_4" data-name="Path 4" d="M56.076,69.687a.544.544,0,0,0-.435-.218H37.153a.544.544,0,0,0-.522.39L31.194,88.347a.544.544,0,0,0,.522.7H50.2a.544.544,0,0,0,.522-.39l5.438-18.487A.545.545,0,0,0,56.076,69.687ZM49.8,87.956H32.443l5.118-17.4H54.914Z" transform="translate(-26.822 -59.868)" fill="#6366f1"/>
          <path id="Path_5" data-name="Path 5" d="M8.592,69.687a.544.544,0,0,0-.435-.218H.544A.544.544,0,0,0,0,70.013V88.5a.544.544,0,0,0,.544.544H2.719a.544.544,0,0,0,.522-.39L8.678,70.166A.545.545,0,0,0,8.592,69.687ZM2.312,87.956H1.087v-17.4H7.43Z" transform="translate(0 -59.868)" fill="#6366f1"/>
          <path id="Path_6" data-name="Path 6" d="M112.336,6.98a.544.544,0,1,0,.769.769l3.076-3.076a.544.544,0,0,0,0-.769L113.1.828a.544.544,0,0,0-.769.769l2.148,2.148h-9.392V4.832h9.392Z" transform="translate(-90.427 -0.669)" fill="#6366f1"/>
        </g>
      </g>
    </g>
    <text id="Creative_and_detail-oriented_Motion_Graphic_Designer_with_a_proven_track_record_of_success_and_client_satisfaction_in_creating_original_animations_and_visual_effects_for_brands_and_businesses." data-name="Creative and detail-oriented Motion Graphic Designer with
a proven track record of success and client satisfaction in
creating original animations and visual effects for brands
and businesses." transform="translate(100 3062)" fill="#fff" font-size="30" font-family="SegoeUI, Segoe UI"><tspan x="0" y="0">Creative and detail-oriented Motion Graphic Designer with</tspan><tspan x="0" y="40">a proven track record of success and client satisfaction in</tspan><tspan x="0" y="80">creating original animations and visual effects for brands</tspan><tspan x="0" y="120">and businesses.</tspan></text>
  </g>
</svg>
