<svg xmlns="http://www.w3.org/2000/svg" width="100%" height="100%" viewBox="0 0 891 504">
  <g id="UI_UX" data-name="UI/UX" transform="translate(-1000 -2821)">
    <rect id="Rectangle_11" data-name="Rectangle 11" width="891" height="450" rx="25" transform="translate(1000 2875)" fill="#1f1c2d"/>
    <rect id="Rectangle_12" data-name="Rectangle 12" width="85" height="85" rx="11" transform="translate(1066 2821)" fill="#6366f1"/>
    <text id="UI_UX_Web_Development" data-name="UI/UX &amp; Web Development" transform="translate(1076 3003)" fill="#fff" font-size="35" font-family="SegoeUI-Semibold, Segoe UI" font-weight="600"><tspan x="0" y="0">UI/UX &amp; Web Development</tspan></text>
    <g id="website-ui-ux" transform="translate(1080 2842)">
      <path id="Path_3" data-name="Path 3" d="M3.795,0H52.252a3.8,3.8,0,0,1,3.795,3.795V39.768a3.807,3.807,0,0,1-3.795,3.795H3.795A3.8,3.8,0,0,1,0,39.768V3.795A3.8,3.8,0,0,1,3.795,0ZM5.747,12.292H49.885V31.029H5.747V12.292Zm8.944,5.346h2.728v5.674a5.058,5.058,0,0,1-.246,1.592,3.515,3.515,0,0,1-.766,1.314,3.024,3.024,0,0,1-1.095.789,5.187,5.187,0,0,1-1.911.319,11.428,11.428,0,0,1-1.409-.1,3.425,3.425,0,0,1-1.277-.388,3.2,3.2,0,0,1-.935-.821,3.1,3.1,0,0,1-.584-1.1,6.093,6.093,0,0,1-.255-1.61V17.638h2.728v5.811a1.709,1.709,0,0,0,.4,1.213,1.436,1.436,0,0,0,1.113.438,1.443,1.443,0,0,0,1.1-.433,1.738,1.738,0,0,0,.4-1.222V17.638Zm4.643,0h2.741v9.528H19.335V17.638Zm6.021-.16H26.6l-2.23,9.847H23.125l2.23-9.847Zm7.859.16h2.728v5.674A5.058,5.058,0,0,1,35.7,24.9a3.515,3.515,0,0,1-.766,1.314,3.024,3.024,0,0,1-1.095.789,5.187,5.187,0,0,1-1.911.319,11.428,11.428,0,0,1-1.409-.1,3.425,3.425,0,0,1-1.277-.388,3.2,3.2,0,0,1-.935-.821,3.1,3.1,0,0,1-.584-1.1,6.07,6.07,0,0,1-.251-1.61V17.638h2.728v5.811a1.709,1.709,0,0,0,.4,1.213,1.628,1.628,0,0,0,2.217,0,1.738,1.738,0,0,0,.4-1.222V17.638Zm3.927,0h3.015l1.564,2.933,1.519-2.933h2.974l-2.746,4.616,3.006,4.912H43.4l-1.733-3.061-1.747,3.061H36.868L39.914,22.2l-2.773-4.561ZM30.5,38.167a1.6,1.6,0,0,1,0-3.193H48.585a1.6,1.6,0,0,1,0,3.193Zm-23.677,0a1.6,1.6,0,0,1,0-3.193H23.59a1.6,1.6,0,0,1,0,3.193Zm46.984-29H2.413v30.97a1.043,1.043,0,0,0,1.049,1.049H52.74a1.048,1.048,0,0,0,.743-.306,1.029,1.029,0,0,0,.306-.743V9.168ZM48.64,2.81a1.875,1.875,0,1,1-1.875,1.875A1.875,1.875,0,0,1,48.64,2.81Zm-12.7,0a1.875,1.875,0,1,1-1.875,1.875A1.875,1.875,0,0,1,35.942,2.81Zm6.349,0a1.875,1.875,0,1,1-1.875,1.875A1.875,1.875,0,0,1,42.291,2.81Z" fill="#fff" fill-rule="evenodd"/>
    </g>
    <g id="swipe-right-svgrepo-com" transform="translate(1619.7 3040.824)">
      <g id="Group_10" data-name="Group 10" transform="translate(-92 -67.331)">
        <g id="Group_9" data-name="Group 9" transform="translate(0 0)">
          <path id="Path_4" data-name="Path 4" d="M56.326,69.689a.55.55,0,0,0-.44-.22H37.213a.55.55,0,0,0-.527.394L31.194,88.536a.549.549,0,0,0,.527.7H50.394a.55.55,0,0,0,.527-.394l5.492-18.673A.55.55,0,0,0,56.326,69.689ZM49.983,88.142H32.455l5.169-17.574H55.152Z" transform="translate(-26.779 -59.772)" fill="#6366f1"/>
          <path id="Path_5" data-name="Path 5" d="M8.678,69.689a.55.55,0,0,0-.44-.22H.549A.549.549,0,0,0,0,70.018V88.691a.549.549,0,0,0,.549.549h2.2a.55.55,0,0,0,.527-.394L8.765,70.173A.55.55,0,0,0,8.678,69.689ZM2.335,88.142H1.1V70.567H7.5Z" transform="translate(0 -59.772)" fill="#6366f1"/>
          <path id="Path_6" data-name="Path 6" d="M112.409,7.043a.549.549,0,1,0,.777.777l3.107-3.107a.549.549,0,0,0,0-.777L113.185.829a.549.549,0,0,0-.777.777l2.169,2.169h-9.486v1.1h9.486Z" transform="translate(-90.28 -0.668)" fill="#6366f1"/>
        </g>
      </g>
    </g>
    <text id="Highly_Skilled_UI_UX_Developer_seeking_to_use_proven_skills_in_UI_prototyping_and_web_development_to_enhance_users_experience._Lead_UI_UX_Designer_at_Mercado_received_95_client_satisfaction_scores._Completed_projects_10_before_goals_with_25_higher_UX" data-name="Highly Skilled UI/UX Developer, seeking to use proven skills
in UI prototyping and web development to enhance users
experience.
Lead UI/UX Designer at Mercado, received 95% client 
satisfaction scores. Completed projects 10% before goals with
25% higher UX" transform="translate(1058 3062)" fill="#fff" font-size="30" font-family="SegoeUI, Segoe UI"><tspan x="0" y="0">Highly Skilled UI/UX Developer, seeking to use proven skills</tspan><tspan x="0" y="40">in UI prototyping and web development to enhance users</tspan><tspan x="0" y="80">experience.</tspan><tspan x="0" y="120">Lead UI/UX Designer at Mercado, received 95% client </tspan><tspan x="0" y="160">satisfaction scores. Completed projects 10% before goals with</tspan><tspan x="0" y="200">25% higher UX scores than average.</tspan></text>
  </g>
</svg>
