<?xml version="1.0" encoding="iso-8859-1"?>
<!-- Generator: Adobe Illustrator 19.0.0, SVG Export Plug-In . SVG Version: 6.00 Build 0)  -->
<svg version="1.1" id="Layer_1" xmlns="http://www.w3.org/2000/svg" xmlns:xlink="http://www.w3.org/1999/xlink" x="0px" y="0px"
	 viewBox="0 0 210.414 210.414" style="enable-background:new 0 0 210.414 210.414;" xml:space="preserve">
<g>
	<g>
		<g>
			<path d="M209.638,71.031c-0.736-0.983-1.893-1.562-3.12-1.562H74.034c-1.729,0-3.25,1.14-3.739,2.797L31.33,204.749
				c-0.346,1.178-0.116,2.451,0.618,3.434c0.736,0.984,1.893,1.562,3.12,1.562h132.483c1.729,0,3.25-1.14,3.739-2.797
				l38.966-132.483C210.602,73.288,210.372,72.015,209.638,71.031z M164.637,201.952H40.276l36.673-124.69h124.36L164.637,201.952z"
				/>
			<path d="M61.569,71.031c-0.736-0.983-1.893-1.562-3.12-1.562H3.897C1.745,69.469,0,71.214,0,73.366v132.483
				c0,2.152,1.745,3.897,3.897,3.897h15.586c1.729,0,3.25-1.14,3.739-2.797L62.187,74.465
				C62.533,73.288,62.303,72.015,61.569,71.031z M16.568,201.952H7.793V77.262h45.448L16.568,201.952z"/>
			<path d="M157.004,45.894c-1.522,1.522-1.522,3.988,0,5.51c0.761,0.761,1.758,1.142,2.755,1.142s1.994-0.381,2.755-1.142
				l22.042-22.042c1.522-1.522,1.522-3.988,0-5.51L162.513,1.81c-1.522-1.522-3.988-1.522-5.51,0c-1.522,1.522-1.522,3.988,0,5.51
				l15.39,15.39h-67.301v7.793h67.301L157.004,45.894z"/>
		</g>
	</g>
</g>
<g>
</g>
<g>
</g>
<g>
</g>
<g>
</g>
<g>
</g>
<g>
</g>
<g>
</g>
<g>
</g>
<g>
</g>
<g>
</g>
<g>
</g>
<g>
</g>
<g>
</g>
<g>
</g>
<g>
</g>
</svg>
